<?xml version="1.0" encoding="utf-8"?>
<!-- Generator: Adobe Illustrator 26.0.1, SVG Export Plug-In . SVG Version: 6.00 Build 0)  -->
<svg version="1.1" id="Calque_1" xmlns="http://www.w3.org/2000/svg" xmlns:xlink="http://www.w3.org/1999/xlink" x="0px" y="0px"
	 viewBox="0 0 4000 4000" style="enable-background:new 0 0 4000 4000;" xml:space="preserve">
<style type="text/css">
	.st0{display:none;}
	.st1{fill:#FFFFFF;}
	.st2{fill:#289A37;}
</style>
<g>
	<path class="st0" d="M500,2000V500h3000v3000H500V2000z M2439.05,2895.2l447.45-447.45V645.5l-898.05,0.3l-898.2,0.45L1089.8,1544
		l-0.3,897.75l450.3,450.3c247.8,247.8,450.75,450.45,451.2,450.45C1991.45,3342.5,2193.05,3141.2,2439.05,2895.2L2439.05,2895.2z
		 M2439.05,2895.2"/>
	<path d="M1775.3,2937.05l-103.8-103.8V1260.5H1889V3041h-4.95C1879.7,3041,1870.25,3032,1775.3,2937.05L1775.3,2937.05z
		 M1775.3,2937.05"/>
	<path d="M2504,1942.55v-681.6l77.7-0.9c42.6-0.6,91.95-1.05,109.5-1.05h31.8v1157.25l-103.95,103.95
		c-100.5,100.5-103.95,103.8-109.5,103.8H2504V1942.55z M2504,1942.55"/>
	<path d="M1732.7,1190.3c-14.85-5.4-27.15-17.55-33-32.7c-3.6-9.15-4.95-28.05-2.85-40.35c3.45-19.8,13.8-33.45,31.35-41.7
		c9.6-4.65,10.8-4.8,29.55-4.8s19.95,0.15,29.55,4.8c18.3,8.7,28.5,22.8,31.5,43.95c4.5,30.6-7.5,56.7-31.5,68.55
		c-7.95,3.9-10.05,4.2-28.05,4.5C1743.95,1192.85,1738.25,1192.4,1732.7,1190.3L1732.7,1190.3z M1732.7,1190.3"/>
	<path d="M1977.05,1189.85c-61.5-10.8-104.4-44.25-119.25-93c-3.9-12.6-6.75-37.35-6-51.15c0.45-8.1,1.2-10.95,3.45-12.6
		c2.25-1.65,13.2-2.1,57.9-2.1c59.85,0,59.85,0,59.85,8.25c0,1.95,0.75,7.2,1.65,11.55c2.4,10.8,15.9,24.6,29.1,29.55
		c9.6,3.6,22.2,6.15,30.9,6.15c15,0,31.2-9.9,34.5-21c3.75-12.45-6.9-20.55-41.4-31.5c-54.6-17.25-67.5-21.9-85.5-30.75
		c-55.95-27.3-78.75-53.25-84.6-95.7c-11.55-83.85,37.8-142.95,129.45-154.95c21.75-2.85,54.45-2.1,75.9,1.65
		c52.95,9.6,95.4,38.7,115.5,79.2c8.85,17.85,12,31.2,13.05,55.2c1.2,29.55,7.2,26.85-60,26.85c-60.75,0-61.05,0-61.05-9.6
		c0-16.2-12-33-29.7-41.7c-9.3-4.65-11.1-4.95-25.05-4.95c-13.8,0-15.6,0.3-22.95,4.35c-12.9,7.2-16.95,17.4-10.95,27.3
		c3.9,6.45,10.95,11.55,24.3,17.7c11.4,5.25,58.2,21,87.6,29.55c33.3,9.75,51.15,19.65,69.75,38.7
		c13.2,13.5,21.15,27.15,26.55,45.15c3.3,11.4,3.75,15.45,3.75,36.75c0,19.5-0.6,26.25-3.15,36c-13.35,51-54.9,84.45-118.35,95.4
		C2048.75,1194.05,2000.45,1194.05,1977.05,1189.85L1977.05,1189.85z M1977.05,1189.85"/>
	<path d="M2254.55,1189.4c-15.9-6.6-25.05-16.2-31.2-32.25c-2.7-7.35-3-10.95-2.55-27.9c0.45-17.25,0.9-20.4,4.35-27.75
		c5.1-10.8,14.85-20.4,26.55-25.95c7.95-3.6,11.85-4.5,24.75-5.1c25.8-1.35,44.1,5.7,55.8,21.75c8.4,11.4,10.5,19.5,10.5,40.05
		c0,17.1-0.3,18.45-4.8,28.05c-5.85,12.3-15.75,22.65-27.15,27.9c-7.65,3.6-10.5,4.05-28.05,4.5
		C2265.05,1193,2262.5,1192.7,2254.55,1189.4L2254.55,1189.4z M2254.55,1189.4"/>
	<path d="M1260.8,1186.7c-1.05-1.05-1.8-5.1-1.8-9c0-6.9,12.15-46.35,117.6-381.3c6.15-19.8,12.3-37.05,13.65-38.25
		c2.1-2.1,11.1-2.4,75.75-2.4c71.4,0,73.5,0.15,76.35,3c1.65,1.8,11.4,30.15,24.9,73.5c21,67.35,41.25,131.7,85.65,272.4
		c20.4,65.1,23.1,77.25,18.3,82.05c-1.35,1.35-17.4,1.8-62.7,1.8c-56.25,0-61.2-0.15-63.45-2.55c-1.2-1.5-5.55-14.1-9.6-28.2
		l-7.35-25.5l-61.65-0.45l-61.8-0.3l-3,10.05c-1.65,5.7-5.1,17.7-7.65,26.7c-2.55,9.15-5.7,17.4-7.05,18.45
		C1383.35,1189.25,1263.5,1189.4,1260.8,1186.7L1260.8,1186.7z M1499,1033.25c0-1.65-31.8-112.65-32.85-114.3
		c-0.75-1.5-33.3,109.8-33.15,114C1433,1034.15,1499,1034.45,1499,1033.25L1499,1033.25z M1499,1033.25"/>
	<path d="M2386.4,1185.2c-2.1-3-2.4-23.4-2.4-213.15v-209.7l3.75-3.6l3.6-3.75h87.45c48.15,0,95.85,0.75,106.2,1.5
		c63.6,4.95,101.7,23.85,118.2,58.65c9.75,20.55,11.55,30.6,11.55,63.6c-0.15,26.85-0.3,29.1-4.2,40.65
		c-4.95,15.15-16.2,31.35-27.3,39.75l-8.25,6.15l9.6,7.2c17.25,13.2,28.2,30.3,34.05,53.85c2.85,11.1,3.15,15.6,2.55,41.25
		c-0.6,25.95-1.05,29.85-4.65,40.65c-13.05,39.3-45,63.6-100.35,76.05c-13.35,3-18.9,3.15-120.75,3.75l-106.65,0.6L2386.4,1185.2z
		 M2580.95,1077.05c10.95-5.4,16.35-12.9,17.25-24c0.9-11.7-4.05-19.95-15.45-25.8l-8.85-4.5h-66.15l-0.45,26.25
		c-0.15,14.4,0,27.9,0.45,29.7l0.9,3.6l31.8-0.6C2571.95,1081.25,2572.4,1081.25,2580.95,1077.05L2580.95,1077.05z M2575.25,915.65
		c9.15-4.05,13.95-8.4,16.65-14.7c5.55-12.9-0.15-26.1-13.95-33c-8.55-4.05-9.3-4.2-38.55-4.65c-23.55-0.45-30.15-0.15-31.05,1.5
		c-1.5,2.25-1.8,49.2-0.3,52.95c0.75,2.4,3.75,2.55,30.3,1.95C2564.75,919.1,2568.5,918.8,2575.25,915.65L2575.25,915.65z
		 M2575.25,915.65"/>
	<path class="st1" d="M1537.55,2899.25l-452.55-453l0.3-902.25l0.45-902.25l902.7-0.45L2891,641v1811.25l-450.3,450l-450.45,450
		L1537.55,2899.25z M1884.5,2150.75V1265H1676v1563.75l103.8,103.8c57.15,57.15,104.1,103.95,104.25,103.95
		C1884.35,3036.5,1884.5,2637.95,1884.5,2150.75L1884.5,2150.75z M2296.7,2047.25l-0.45-777l-99.3-0.45l-99.45-0.3v1754.25
		l199.5-199.5L2296.7,2047.25z M2614.55,2515.7l103.95-103.95V1263.5h-27.3c-15.15,0-62.4,0.45-105,1.05l-77.7,0.9v677.1
		c0,372.3,0.45,676.95,1.05,676.95C2510.3,2619.5,2557.55,2572.7,2614.55,2515.7L2614.55,2515.7z M1462.7,1270.25
		c-0.3-0.15-149.55,2.55-195,3.6l-4.2,0.15v1133.25L1462.25,2606l0.45-667.8C1462.85,1571,1462.85,1270.4,1462.7,1270.25
		L1462.7,1270.25z M1782.95,1183.55c22.65-11.25,35.55-36.6,31.2-61.95c-3.45-19.65-13.8-33.3-31.35-41.55
		c-9.15-4.35-11.4-4.8-25.05-4.8c-13.65,0-15.9,0.45-25.05,4.8c-17.55,8.25-27.9,21.9-31.2,41.4c-4.05,22.8,5.85,47.1,23.55,58.35
		c11.1,6.9,18.15,8.7,34.2,8.25C1772.3,1187.75,1775.45,1187.15,1782.95,1183.55L1782.95,1183.55z M2067.8,1185.65
		c63.45-10.95,105.3-44.55,118.35-95.4c4.65-18.15,4.35-46.65-0.75-63.75c-5.25-17.85-13.2-31.5-26.4-45.15
		c-18.6-19.05-36.45-28.95-69.75-38.7c-30.9-9-76.5-24.45-88.5-30c-6.6-3.15-14.55-7.8-17.55-10.5c-7.05-6.15-10.95-15.9-9.45-23.7
		c3.3-18.15,21.9-26.85,51.45-24.3c27,2.55,49.8,24.15,49.8,47.25c0,9.45,0.75,9.6,56.55,9.6c61.2,0,56.85,1.8,55.5-22.35
		c-1.2-19.5-5.1-34.5-13.05-50.7c-20.1-40.5-62.7-69.75-115.5-79.05c-42.3-7.5-88.2-2.55-122.55,13.35
		c-40.35,18.6-66.3,50.55-73.2,90c-2.7,15.6-2.85,24.9-0.6,40.8c5.85,42.45,28.65,68.4,84.6,95.7c17.85,8.85,29.4,12.9,85.2,30.75
		c34.2,10.8,43.05,17.25,43.05,31.2c0,22.95-23.7,34.65-58.5,28.95c-15.75-2.55-25.5-7.35-35.4-17.25c-7.8-7.8-9.45-10.5-10.95-17.1
		c-0.9-4.35-1.65-9.6-1.65-11.55c0-8.25-0.45-8.25-54.9-8.25c-31.05,0-51.45,0.6-53.1,1.5c-4.2,2.25-5.1,10.5-3.15,28.8
		c2.1,19.35,5.85,32.4,13.95,48c19.2,37.05,58.2,62.4,110.25,71.55C2004.5,1189.4,2044.7,1189.55,2067.8,1185.65L2067.8,1185.65z
		 M2306.3,1183.7c11.4-5.25,21.3-15.6,27.15-27.9c4.2-8.85,4.65-11.55,4.65-23.55c0.15-15.75-2.7-25.05-10.35-35.55
		c-24.3-33-80.85-27.6-98.1,9.3c-5.4,11.85-6.3,34.5-1.8,46.65c6.15,16.05,15.3,25.65,31.2,32.25c7.5,3.15,10.65,3.6,23.7,3.3
		C2295.35,1187.75,2299.1,1187.15,2306.3,1183.7L2306.3,1183.7z M1382.45,1182.2c1.35-1.05,4.5-9.3,7.05-18.45
		c2.55-9,6-21,7.65-26.7l3-10.05l66.3,0.3l66.15,0.45l7.35,25.5c4.05,14.1,8.4,26.7,9.6,28.2c2.25,2.4,7.05,2.55,58.95,2.55
		c60,0,60,0,60-7.2c0-2.1-9-32.4-20.1-67.65c-44.4-140.7-64.65-205.05-85.65-272.4c-13.5-43.35-23.25-71.7-24.9-73.5
		c-2.85-2.85-4.95-3-71.85-3c-60.6,0-69.15,0.3-71.25,2.4c-1.35,1.2-7.5,18.45-13.65,38.25c-85.95,273-117.6,374.4-117.6,376.8
		c0,6.15,1.2,6.3,60,6.3C1366.4,1184,1380.5,1183.55,1382.45,1182.2L1382.45,1182.2z M2611.7,1179.8
		c43.65-9.75,75.6-28.95,90.75-54.45c10.2-17.4,13.35-30.15,14.25-57.75c0.6-21,0.3-25.65-2.55-36.75
		c-6.3-25.2-20.25-45.3-40.95-58.8c-4.8-3.15-8.7-6.15-8.55-6.75c0-0.6,4.8-4.35,10.8-8.55c13.95-9.75,24.9-24.6,30.6-41.7
		c3.75-11.25,4.05-14.25,4.2-36.3c0-28.05-2.25-39.45-11.55-59.1c-16.5-34.8-54.6-53.7-118.2-58.65c-10.35-0.75-56.1-1.5-101.7-1.5
		h-82.95l-3.6,3.75l-3.75,3.6v205.2c0,185.7,0.3,205.65,2.4,208.65l2.4,3.45l102.3-0.6C2592.65,1182.95,2598.5,1182.8,2611.7,1179.8
		L2611.7,1179.8z M2611.7,1179.8"/>
	<path class="st1" d="M1425.5,1038.05c0-1.95,38.85-137.85,39.6-138.6c0.45-0.45,1.2-0.6,1.35-0.3c0.3,0.3,9.15,31.05,19.8,68.1
		c10.5,37.2,19.5,68.4,19.8,69.45c0.6,1.35-7.95,1.8-39.9,1.8C1443.8,1038.5,1425.5,1038.35,1425.5,1038.05L1425.5,1038.05z
		 M1425.5,1038.05"/>
	<path class="st1" d="M2503.25,1083.2c-0.45-1.8-0.6-17.25-0.45-34.2l0.45-30.75h75.15l8.85,4.5c12.45,6.45,16.2,13.5,15.45,30.15
		c-0.6,15.75-4.65,22.35-17.25,28.65l-8.7,4.2l-36.3,0.45l-36.3,0.6L2503.25,1083.2z M2503.25,1083.2"/>
	<path class="st1" d="M2503.4,922.25c-1.35-3.75-1.05-59.7,0.45-61.95c0.9-1.65,8.4-1.95,35.55-1.5c34.2,0.45,34.35,0.45,43.05,4.65
		c11.7,5.85,16.05,13.2,16.05,27.15c0,16.2-4.35,23.1-18.75,29.7c-6.9,3-10.05,3.45-41.4,3.9
		C2507.6,924.8,2504.3,924.65,2503.4,922.25L2503.4,922.25z M2503.4,922.25"/>
	<path class="st2" d="M2093,2151.05V1265l103.95,0.3l103.8,0.45l0.45,781.5l0.3,781.5l-208.5,208.5V2151.05z M2093,2151.05"/>
	<path class="st2" d="M1362.95,2515.7L1259,2411.75v-571.2c0-455.85,0.45-571.05,1.95-571.05c20.55-0.75,205.95-4.05,206.25-3.9
		c0.15,0.3,0.15,304.95,0,677.1l-0.45,676.8L1362.95,2515.7z M1362.95,2515.7"/>
</g>
</svg>
